<svg width="87" height="60" viewBox="0 0 87 60" fill="none" xmlns="http://www.w3.org/2000/svg">
<path fill-rule="evenodd" clip-rule="evenodd" d="M18.5992 25.3164C8.41511 25.3164 0.142546 18.0515 0 9.0415C3.09305 14.3498 9.33541 17.9779 16.5324 17.9779H26.9996C28.2372 20.1886 28.9331 22.6804 28.9331 25.3164H18.5992Z" fill="white"/>
<path d="M0 0H10.3332C20.6057 0 28.9331 7.28651 28.9331 16.2749V16.2749H18.5998C8.32744 16.2749 0 8.98836 0 0V0Z" fill="white"/>
<path d="M21.9167 34.973C22.8932 34.973 23.7974 34.9006 24.5207 34.7921C24.9185 34.756 25.3164 34.7198 25.7142 34.6475V35.2985C23.7251 35.4793 22.2422 37.1068 22.2422 39.0959V60.0001H21.3381L4.66538 35.6601V55.2985C4.66538 57.6131 6.29287 59.0598 8.02885 59.3491V60.0001C7.63102 59.9278 7.19702 59.8916 6.79919 59.8554C6.07587 59.7469 5.17171 59.6746 4.33988 59.6746C3.47189 59.6746 2.53156 59.7469 1.8444 59.8554C1.41041 59.8916 1.01258 59.9278 0.614746 60.0001V59.3491C2.4954 59.0959 3.97822 57.5769 3.97822 55.2985V40.0001C3.97822 37.2514 3.11023 35.624 1.8444 35.2985V34.6475C2.45923 34.756 3.11023 34.8645 3.72505 34.973C4.77388 35.1176 6.00353 35.2985 6.83536 35.2985C8.17352 35.2985 11.5732 35.1538 13.924 34.6475V35.2985C13.5261 35.4793 13.5261 35.7325 13.5261 35.8771C13.5261 36.1303 13.7431 36.6366 14.0686 37.1068C14.2495 37.3599 16.1301 40.0724 17.9746 42.7126C19.0234 44.2677 20.2531 46.0037 21.5912 47.9205V39.0959C21.5912 37.1068 20.1084 35.4793 18.1193 35.2985V34.6836C18.5171 34.7198 18.9149 34.7921 19.3128 34.8283C20.0361 34.9368 20.9402 34.973 21.9167 34.973Z" fill="white"/>
<path d="M45.2265 56.6004V55.5878H45.8414V57.2876C45.8414 59.4214 43.4182 59.9639 41.4291 59.9639C38.4272 59.9639 37.4508 58.7343 37.4508 57.4323V56.3834C36.6913 58.5173 34.9914 59.9639 32.2428 59.9639C29.675 59.9639 27.5412 58.6619 27.5412 55.9133C27.5412 52.0435 31.8811 51.1755 34.9191 51.1755H37.4508V49.6203C37.4508 47.4504 36.9083 44.8102 34.1958 44.8102C33.5086 44.8102 32.9661 44.9549 32.496 45.208C32.6045 45.1719 32.713 45.1719 32.8938 45.1719C34.4489 45.1719 35.6786 46.4015 35.6786 47.9567C35.6786 49.5118 34.4489 50.7415 32.8938 50.7415C31.3386 50.7415 30.109 49.5118 30.109 47.9567C30.109 45.1719 32.8938 44.1954 35.1723 44.1954C38.7889 44.1954 43.7075 45.1357 43.7075 49.6203V57.0344C43.7075 57.7216 43.816 58.2279 44.4309 58.2641C45.118 58.2641 45.2265 57.7939 45.2265 56.6004ZM37.4508 53.7071V51.7542H37.0168C35.0999 51.7542 34.1958 53.3816 34.1958 55.1176C34.1958 55.9856 34.3766 57.4323 35.5339 57.4323C37.1614 57.4323 37.4508 54.8645 37.4508 53.7071Z" fill="white"/>
<path d="M68.1272 34.8645V54.0326C68.1272 56.4558 68.6697 57.7578 69.2122 58.4811C69.5377 58.9151 69.8993 59.2044 70.2972 59.3491V59.9639C69.7908 59.8193 69.2483 59.6746 68.6697 59.5661C67.6932 59.3129 66.355 59.1683 65.0169 59.1683C63.6787 59.1683 62.3406 59.3129 61.3641 59.5661C60.7854 59.6746 60.2429 59.8193 59.7366 59.9639V59.3491C60.1344 59.2044 60.4961 58.9151 60.8216 58.4811C61.3641 57.7578 61.8704 56.4558 61.8704 54.0326V43.9784C61.8704 37.7939 58.7963 35.2623 55.4328 35.2623C52.9735 35.2623 51.5991 35.841 50.8397 36.8536C51.1652 36.7451 51.5268 36.7089 51.9608 36.7089C53.95 36.7089 55.5774 38.2641 55.5774 40.3256C55.5774 42.3509 53.9861 43.9422 51.9608 43.9422C49.9717 43.9422 48.3442 42.3147 48.3442 40.3256V40.2171C48.3803 36.6366 51.3821 34.6475 55.8306 34.6475C58.1091 34.6475 61.5811 35.6963 64.0042 35.6963C65.8487 35.6963 67.2953 35.0815 67.8378 34.6475L68.1272 34.8645ZM47.6932 59.9639V59.3491C48.091 59.2044 48.4527 58.9151 48.7782 58.4811C49.3207 57.7578 49.827 56.4558 49.827 54.0326V49.8373C49.827 47.378 49.2483 46.2207 48.6697 45.5335C48.3442 45.1357 47.9463 44.9187 47.5123 44.8464V44.1954C47.874 44.3039 48.2718 44.4124 48.742 44.5209C49.5738 44.6655 50.695 44.8464 52.0331 44.8464C52.9373 44.8464 55.252 44.5932 55.8306 44.1954L56.0838 44.3762V54.0326C56.0838 56.4558 56.6263 57.7578 57.1688 58.4811C57.4943 58.9151 57.8559 59.2044 58.2538 59.3491V59.9639C57.7474 59.8193 57.2049 59.6746 56.6263 59.5661C55.6498 59.3129 54.3116 59.1683 52.9735 59.1683C51.6353 59.1683 50.2972 59.3129 49.3207 59.5661C48.742 59.6746 48.1995 59.8193 47.6932 59.9639Z" fill="white"/>
<path d="M80.1813 48.2822C83.7618 49.2948 85.1723 50.8138 85.1723 53.5263C85.1723 57.2876 82.5321 59.9639 78.4815 59.9639C74.8287 59.9639 72.0801 58.3726 72.0801 55.7686C72.0801 54.1411 73.382 52.8391 75.0095 52.8391C76.637 52.8391 77.9752 54.1411 77.9752 55.7686C77.9752 57.3961 76.6732 58.6981 75.0819 58.7343C76.1307 59.1321 77.3603 59.2768 78.4815 59.2768C80.6876 59.2768 81.9173 58.1918 81.9173 56.6004C81.9173 54.5751 79.6027 53.5625 76.9987 52.803C74.2139 52.0435 72.0801 50.9947 72.0801 48.2822C72.0801 45.3889 74.6479 44.1954 77.6497 44.1954C79.0602 44.1954 80.1451 44.4485 81.0493 44.8464C81.3025 44.9549 81.5918 45.0272 81.845 45.0272C82.2066 45.0272 82.8938 44.9549 83.4363 44.1954H84.0149C83.9788 44.4485 83.9065 44.7379 83.8703 44.991C83.7618 45.4612 83.7256 46.0399 83.7256 46.5824C83.7256 47.1249 83.8703 47.6674 84.0149 48.2098C84.0873 48.5353 84.1596 48.8247 84.2681 49.114H83.6533C82.6768 46.8717 80.543 44.8825 77.6858 44.8825C76.7093 44.8825 75.4074 45.3527 75.4074 46.2207C75.4074 47.378 78.4815 47.812 80.1813 48.2822Z" fill="white"/>
<path d="M50.8499 0.289551C55.5154 0.289551 60.3978 2.02554 60.3978 7.66749C60.3978 13.1286 55.6239 14.5753 50.8499 14.5753H47.9205L47.8843 19.6747C47.8843 22.0979 48.4268 23.3999 48.9693 24.1232C49.2948 24.5572 49.6564 24.8465 50.0543 24.9912V25.6422C49.4756 25.4975 48.8608 25.3528 48.2098 25.2443C47.0886 24.9912 45.7143 24.8465 44.3762 24.8465C43.038 24.8465 41.6275 24.9912 40.5063 25.2443C39.8554 25.3528 39.2405 25.4975 38.6619 25.6422V24.9912C39.0597 24.8465 39.4214 24.5572 39.7469 24.1232C40.2894 23.3999 40.8318 22.0979 40.8318 19.6747V5.9315C40.8318 3.47219 40.2894 2.31487 39.7469 1.62771C39.4214 1.22988 39.0597 1.01288 38.6619 0.940546V0.289551C39.132 0.361883 39.6384 0.434217 40.1809 0.470382C41.0488 0.578882 42.17 0.68738 43.1827 0.68738C44.1592 0.68738 46.2568 0.289551 50.8499 0.289551ZM47.9205 13.9243H49.5479C52.3689 13.9243 52.8391 9.72897 52.8391 7.66749C52.8391 5.49751 52.3689 0.940546 49.5479 0.940546H47.9205V13.9243Z" fill="white"/>
<path d="M85.5956 3.18286C85.5956 4.23169 85.8488 5.67834 86.102 6.87183C86.2105 7.55899 86.3913 8.28232 86.5721 9.00565H85.9211C85.234 5.89534 82.3768 1.66387 78.724 1.66387H78.0007V19.6747C78.0007 22.0979 78.5432 23.3999 79.0857 24.1232C79.4112 24.5572 79.7729 24.8465 80.1707 24.9912V25.6422C79.592 25.4975 78.9772 25.3528 78.3262 25.2443C77.205 24.9912 75.8307 24.8465 74.4926 24.8465C73.1544 24.8465 71.7439 24.9912 70.6228 25.2443C69.9718 25.3528 69.3569 25.4975 68.7783 25.6422V24.9912C69.1761 24.8465 69.5378 24.5572 69.8633 24.1232C70.4058 23.3999 70.9483 22.0979 70.9483 19.6747L70.9121 1.66387H70.1888C66.4636 1.66387 63.8235 5.89534 63.0278 9.00565H62.3768C62.5577 8.28232 62.7023 7.55899 62.847 6.87183C63.1002 5.67834 63.3172 4.23169 63.3172 3.18286C63.3172 2.2787 63.1363 1.66387 62.9555 1.22988C62.847 0.976711 62.7385 0.795879 62.5938 0.615048L62.8108 0.289551C64.8361 0.542714 67.6571 0.68738 70.1164 0.79588C71.5269 0.832046 72.9736 0.868212 74.4564 0.90438C75.9392 0.868212 77.422 0.832046 78.8325 0.79588C81.2918 0.68738 84.149 0.542714 86.1381 0.289551L86.3551 0.615048C86.2105 0.795879 86.102 0.976711 85.9935 1.22988C85.7403 1.66387 85.5956 2.2787 85.5956 3.18286Z" fill="white"/>
</svg>
